<?xml version="1.0" standalone="no"?>
<!-- Generator: Adobe Fireworks 10, Export SVG Extension by Aaron Beall (http://fireworks.abeall.com) . Version: 0.6.0  -->
<!DOCTYPE svg PUBLIC "-//W3C//DTD SVG 1.1//EN" "http://www.w3.org/Graphics/SVG/1.1/DTD/svg11.dtd">
<svg id="eyes" viewBox="0 0 120 500" style="background-color:#ffffff00" version="1.1"
	xmlns="http://www.w3.org/2000/svg" xmlns:xlink="http://www.w3.org/1999/xlink" xml:space="preserve"
	x="0px" y="0px" width="120px" height="500px"
>
	<g>
		<path id="Ellipse" d="M 21 25.0027 C 21 19.8786 22.6157 18 26.6158 18 C 30.6159 18 33 19.8786 33 25.0027 C 33 30.1267 30.6159 32 26.6158 32 C 22.6157 32 21 30.1267 21 25.0027 Z" fill="#000000"/>
		<path id="Ellipse2" d="M 21 21.25 C 20.6793 16.9201 34.624 18.3653 32.7018 30.4076 C 31.6609 36.9283 24.7988 36.8674 20.25 34.75 C 17.1277 33.2966 21.5 28 21 21.25 Z" fill="#ff6633"/>
		<path id="Ellipse3" d="M 98.0003 22.25 C 98.321 17.9201 84.3763 19.3653 86.2985 31.4076 C 87.3394 37.9283 94.2015 37.8674 98.7503 35.75 C 101.8726 34.2966 97.5003 29 98.0003 22.25 Z" fill="#ff6633"/>
		<path id="Ellipse4" d="M 21 25.0027 C 21 19.8786 22.6157 18 26.6158 18 C 30.6159 18 33 19.8786 33 25.0027 C 33 30.1267 30.6159 32 26.6158 32 C 22.6157 32 21 30.1267 21 25.0027 Z" fill="#000000"/>
		<path id="Ellipse5" d="M 86 25.0027 C 86 19.8786 87.6157 18 91.6158 18 C 95.6159 18 98 19.8786 98 25.0027 C 98 30.1267 95.6159 32 91.6158 32 C 87.6157 32 86 30.1267 86 25.0027 Z" fill="#000000"/>
	</g>
	<g>
		<path id="Ellipse6" d="M 12.875 70.625 C 17 71.875 21 74 30.75 75.875 C 21.875 79.125 20.875 79.5 17.25 80.75 C 21.875 76.875 20 75 12.875 70.625 Z" fill="#ff6633"/>
		<path d="M 17 81 C 33.129 74.95 37 76.0844 37 76.0844 " stroke="#000000" stroke-width="2" fill="none"/>
		<path d="M 11 70 C 31.9677 77.26 37 75.8988 37 75.8988 " stroke="#000000" stroke-width="2" fill="none"/>
	</g>
	<g>
		<path id="Ellipse7" d="M 104.125 70.625 C 100 71.875 96 74 86.25 75.875 C 95.125 79.125 96.125 79.5 99.75 80.75 C 95.125 76.875 97 75 104.125 70.625 Z" fill="#ff6633"/>
		<path d="M 100 81 C 83.871 74.95 80 76.0844 80 76.0844 " stroke="#000000" stroke-width="2" fill="none"/>
		<path d="M 106 70 C 85.0323 77.26 80 75.8988 80 75.8988 " stroke="#000000" stroke-width="2" fill="none"/>
	</g>
	<path d="M 0 0 L 120 0 L 120 500 L 0 500 L 0 0 Z" fill="none"/>
</svg>