<?xml version="1.0" standalone="no"?>
<!-- Generator: Adobe Fireworks 10, Export SVG Extension by Aaron Beall (http://fireworks.abeall.com) . Version: 0.6.0  -->
<!DOCTYPE svg PUBLIC "-//W3C//DTD SVG 1.1//EN" "http://www.w3.org/Graphics/SVG/1.1/DTD/svg11.dtd">
<svg id="tongue-punched" viewBox="0 0 500 350" style="background-color:#ffffff00" version="1.1"
	xmlns="http://www.w3.org/2000/svg" xmlns:xlink="http://www.w3.org/1999/xlink" xml:space="preserve"
	x="0px" y="0px" width="500px" height="350px"
>
	<path d="M 0 0 L 500 0 L 500 350 L 0 350 L 0 0 Z" fill="none"/>
	<g>
		<path d="M 269.365 31.755 C 288.92 34.4536 306.6047 36.7083 314.8766 34.2132 C 328.2017 30.1939 338.4768 20.4312 323.871 9.7734 C 311.8784 1.0224 305.104 12.3606 293.8895 14.1419 C 288.4014 15.0136 283.0298 15.444 277.75 15.57 C 271.2357 18.6834 266.6086 22.6916 267.0269 28.8323 C 267.1113 30.0722 267.9727 31.0184 269.365 31.755 Z" stroke="#000000" stroke-width="2" fill="#ff6666"/>
		<path d="M 269.028 22.5751 C 288.433 24.9621 304.2267 25.2024 313 16.7872 " stroke="#000000" stroke-width="1" fill="none"/>
	</g>
	<g>
		<path d="M 268.79 281.415 C 298.3816 281.448 320.4907 276.1073 344.9349 276.5578 C 376.9153 277.1473 424.551 288.836 439.8766 284.2132 C 453.2017 280.1939 463.4768 270.4312 448.871 259.7734 C 436.8784 251.0224 430.104 262.3606 418.8895 264.1419 C 385.5766 269.4332 356.5944 258.4006 325.9466 262.4287 C 314.0547 263.9916 295.5261 266.2856 276.465 266.21 C 270.6391 269.2317 266.6367 273.1048 267.0269 278.8323 C 267.099 279.8912 267.7377 280.7325 268.79 281.415 Z" stroke="#000000" stroke-width="2" fill="#ff6666"/>
		<path d="M 268.7963 272.3389 C 304.0971 272.4666 321.9352 264.9155 338 265.7872 C 381 268.1206 421.6667 282.4539 438 266.7872 " stroke="#000000" stroke-width="1" fill="none"/>
	</g>
	<g>
		<path d="M 267.625 230.385 C 286.2483 228.8647 302.4985 226.2364 319.9349 226.5578 C 351.9153 227.1473 399.551 238.836 414.8766 234.2132 C 428.2017 230.1939 438.4768 220.4312 423.871 209.7734 C 411.8784 201.0224 405.104 212.3606 393.8895 214.1419 C 360.5766 219.4332 331.5944 208.4006 300.9466 212.4287 C 295.0705 213.201 287.5711 214.15 279.19 214.905 C 271.9301 218.1115 266.5784 222.2477 267.0269 228.8323 C 267.0663 229.4105 267.2726 229.9265 267.625 230.385 Z" stroke="#000000" stroke-width="2" fill="#ff6666"/>
		<path d="M 269.325 221.0326 C 288.7916 218.9451 301.3612 215.1557 313 215.7872 C 356 218.1206 396.6667 232.4539 413 216.7872 " stroke="#000000" stroke-width="1" fill="none"/>
	</g>
	<g>
		<path d="M 267 177.995 C 276.3415 177.0798 285.4633 176.3832 294.9349 176.5578 C 326.9153 177.1473 374.551 188.836 389.8766 184.2132 C 403.2017 180.1939 413.4768 170.4312 398.871 159.7734 C 386.8784 151.0224 380.104 162.3606 368.8895 164.1419 C 340.026 168.7264 314.4115 161.0556 288.15 161.545 C 277.2328 165.1878 267.0602 169.4523 267 177.995 Z" stroke="#000000" stroke-width="2" fill="#ff6666"/>
		<path d="M 275.9889 166.3826 C 280.2354 165.8506 284.1682 165.5793 288 165.7872 C 331 168.1206 371.6667 182.4539 388 166.7872 " stroke="#000000" stroke-width="1" fill="none"/>
	</g>
	<g>
		<path d="M 267.115 126.53 C 268.052 126.5308 268.9915 126.5404 269.9349 126.5578 C 301.9153 127.1473 349.551 138.836 364.8766 134.2132 C 378.2017 130.1939 388.4768 120.4312 373.871 109.7734 C 361.8784 101.0224 355.104 112.3606 343.8895 114.1419 C 323.0842 117.4465 303.9676 114.3843 285.08 112.6 C 276.0281 115.8106 268.1451 119.7132 267.115 126.53 Z" stroke="#000000" stroke-width="2" fill="#ff6666"/>
		<path d="M 275.5492 116.779 C 313.734 120.6409 348.2667 130.9192 363 116.7872 " stroke="#000000" stroke-width="1" fill="none"/>
	</g>
	<g>
		<path d="M 267 78.175 C 295.7139 81.38 327.8102 87.8529 339.8766 84.2132 C 353.2017 80.1939 363.4768 70.4312 348.871 59.7734 C 336.8784 51.0224 330.104 62.3606 318.8895 64.1419 C 305.3074 66.2992 292.4437 65.7426 279.895 64.6 C 272.5278 67.7432 266.9375 71.7633 267 78.175 Z" stroke="#000000" stroke-width="2" fill="#ff6666"/>
		<path d="M 271.3204 69.3939 C 300.8652 73.6143 325.9999 78.2975 338 66.7872 " stroke="#000000" stroke-width="1" fill="none"/>
	</g>
	<g>
		<path d="M 267.33 329.92 C 311.3372 334.844 338.7346 325.9827 369.9349 326.5578 C 401.9153 327.1473 449.551 338.836 464.8766 334.2132 C 478.2017 330.1939 488.4768 320.4312 473.871 309.7734 C 461.8784 301.0224 455.104 312.3606 443.8895 314.1419 C 410.5766 319.4332 381.5944 308.4006 350.9466 312.4287 C 334.4211 314.6006 305.0734 318.1841 279.3 314.86 C 271.9849 318.0732 266.5761 322.2148 267.0269 328.8323 C 267.0535 329.2241 267.1559 329.5845 267.33 329.92 Z" stroke="#000000" stroke-width="2" fill="#ff6666"/>
		<path d="M 269.1664 321.0996 C 321.5452 326.0001 343.5696 314.7328 363 315.7872 C 406 318.1206 446.6667 332.4539 463 316.7872 " stroke="#000000" stroke-width="1" fill="none"/>
	</g>
	<g>
		<path d="M 17.58 30.32 C 26.1109 29.9772 34.8396 30.2079 43.8895 31.6453 C 55.104 33.4266 61.8784 44.7648 73.871 36.0138 C 88.4768 25.356 78.2017 15.5934 64.8766 11.574 C 59.3257 9.8996 49.5342 10.3671 37.785 11.67 C 26.6565 15.4038 16.4133 19.8247 17.0268 28.8323 C 17.0644 29.3833 17.2571 29.878 17.58 30.32 Z" stroke="#000000" stroke-width="2" fill="#ff6666"/>
		<path d="M 21.7256 18.7801 C 39.4351 16.8301 53.7909 17.1259 62 25 " stroke="#000000" stroke-width="1" fill="none"/>
	</g>
	<g>
		<path d="M 20.22 82.155 C 35.8426 80.5143 51.7966 78.9304 68.8895 81.6453 C 80.104 83.4266 86.8784 94.7648 98.871 86.0138 C 113.4768 75.356 103.2017 65.5934 89.8766 61.574 C 79.0348 58.3037 52.0248 63.1983 25.825 66.55 C 20.3482 69.5219 16.6512 73.3167 17.0268 78.8323 C 17.1275 80.3095 18.33 81.3681 20.22 82.155 Z" stroke="#000000" stroke-width="2" fill="#ff6666"/>
		<path d="M 18.6877 72.6253 C 48.9372 68.3504 74.7795 63.2783 87 75 " stroke="#000000" stroke-width="1" fill="none"/>
	</g>
	<g>
		<path d="M 27.355 133.825 C 48.7801 132.3555 70.2451 127.8898 93.8895 131.6453 C 105.104 133.4266 111.8784 144.7648 123.871 136.0138 C 138.4768 125.356 128.2017 115.5934 114.8766 111.574 C 99.8438 107.0395 53.724 118.2006 21.785 119.185 C 18.6336 121.7216 16.7537 124.8219 17.0268 128.8323 C 17.226 131.7562 21.7451 133.0333 27.355 133.825 Z" stroke="#000000" stroke-width="2" fill="#ff6666"/>
		<path d="M 17.66 125.6259 C 58.5312 122.4635 96.3853 110.0226 112 125 " stroke="#000000" stroke-width="1" fill="none"/>
	</g>
	<g>
		<path d="M 22.56 182.92 L 25.9466 183.3586 C 56.5944 187.3867 85.5766 176.3541 118.8895 181.6453 C 130.104 183.4266 136.8784 194.7648 148.871 186.0138 C 163.4768 175.356 153.2017 165.5934 139.8766 161.574 C 124.551 156.9512 76.9153 168.6399 44.9349 169.2294 C 37.4681 169.367 30.2208 168.9651 22.91 168.34 C 19.0901 171.027 16.7226 174.3654 17.0268 178.8323 C 17.1644 180.8522 19.3629 182.0884 22.56 182.92 Z" stroke="#000000" stroke-width="2" fill="#ff6666"/>
		<path d="M 17.7857 174.3467 C 24.9496 175.5027 31.0946 176.3204 37 176 C 80 173.6667 120.6667 159.3333 137 175 " stroke="#000000" stroke-width="1" fill="none"/>
	</g>
	<g>
		<path d="M 17.38 230.015 C 30.4803 230.7442 42.4204 232.2379 50.9466 233.3586 C 81.5944 237.3867 110.5766 226.3541 143.8895 231.6453 C 155.104 233.4266 161.8784 244.7648 173.871 236.0138 C 188.4768 225.356 178.2017 215.5934 164.8766 211.574 C 149.551 206.9512 101.9153 218.6399 69.9349 219.2294 C 55.3094 219.499 41.5213 217.6959 26.465 216.21 C 20.6386 219.2318 16.6367 223.1045 17.0268 228.8323 C 17.056 229.2598 17.1762 229.6542 17.38 230.015 Z" stroke="#000000" stroke-width="2" fill="#ff6666"/>
		<path d="M 19.5518 220.8894 C 38.3232 223.0005 50.6075 226.6182 62 226 C 105 223.6667 145.6667 209.3333 162 225 " stroke="#000000" stroke-width="1" fill="none"/>
	</g>
	<g>
		<path d="M 17.275 279.81 C 39.4078 278.7483 62.1477 281.545 75.9466 283.3586 C 106.5944 287.3867 135.5766 276.3541 168.8895 281.6453 C 180.104 283.4266 186.8784 294.7648 198.871 286.0138 C 213.4768 275.356 203.2017 265.5934 189.8766 261.574 C 174.551 256.9512 126.9153 268.6399 94.9349 269.2294 C 73.6451 269.6218 54.1283 265.6176 29.895 264.6 C 22.2817 267.8493 16.564 272.0374 17.0268 278.8323 C 17.0506 279.1809 17.1339 279.5062 17.275 279.81 Z" stroke="#000000" stroke-width="2" fill="#ff6666"/>
		<path d="M 21.3375 269.4613 C 54.3082 269.8245 71.4814 276.8421 87 276 C 130 273.6667 170.6667 259.3333 187 275 " stroke="#000000" stroke-width="1" fill="none"/>
	</g>
	<g>
		<path d="M 20.69 332.34 C 48.2501 326.7742 82.5458 330.9401 100.9466 333.3586 C 131.5944 337.3867 160.5766 326.3541 193.8895 331.6453 C 205.104 333.4266 211.8784 344.7648 223.871 336.0138 C 238.4768 325.356 228.2017 315.5934 214.8766 311.574 C 199.551 306.9512 151.9153 318.6399 119.9349 319.2294 C 91.6861 319.7501 66.5588 312.5354 29.395 314.82 C 22.0335 318.0388 16.5742 322.1872 17.0268 328.8323 L 17.03 328.895 C 17.0549 329.1704 17.1205 329.4333 17.22 329.68 C 17.6851 330.8331 18.9366 331.6866 20.69 332.34 ZM 17.03 328.895 L 17.22 329.68 C 17.1205 329.4333 17.0549 329.1704 17.03 328.895 Z" stroke="#000000" stroke-width="2" fill="#ff6666"/>
		<path d="M 19.726 320.5457 C 70.9846 316.0108 92.7636 327.0439 112 326 C 155 323.6667 195.6667 309.3333 212 325 " stroke="#000000" stroke-width="1" fill="none"/>
	</g>
</svg>