<?xml version="1.0" standalone="no"?>
<!-- Generator: Adobe Fireworks 10, Export SVG Extension by Aaron Beall (http://fireworks.abeall.com) . Version: 0.6.0  -->
<!DOCTYPE svg PUBLIC "-//W3C//DTD SVG 1.1//EN" "http://www.w3.org/Graphics/SVG/1.1/DTD/svg11.dtd">
<svg id="body" viewBox="0 0 500 500" style="background-color:#ffffff00" version="1.1"
	xmlns="http://www.w3.org/2000/svg" xmlns:xlink="http://www.w3.org/1999/xlink" xml:space="preserve"
	x="0px" y="0px" width="500px" height="500px"
>
	<path d="M 0 0 L 500 0 L 500 500 L 0 500 L 0 0 Z" fill="none"/>
	<g>
		<path id="Ellipse" d="M 53.4702 140.6263 C 53.4702 44.1092 28.4578 30 112.7355 30 C 197.0132 30 200 44.1092 200 140.6263 C 200 237.1434 197.0132 229.8754 112.7355 229.8754 C 28.4578 229.8754 53.4702 237.1434 53.4702 140.6263 Z" stroke="#000000" stroke-width="2" fill="#ff6633"/>
		<path id="Ellipse2" d="M 73.9381 135.9887 C 73.9381 45.2626 52.7609 32 124.116 32 C 195.4711 32 198 45.2626 198 135.9887 C 198 226.7148 195.4711 219.8829 124.116 219.8829 C 52.7609 219.8829 73.9381 226.7148 73.9381 135.9887 Z" fill="#ffcc00"/>
	</g>
	<g>
		<path id="Ellipse3" d="M 119 182.0027 C 118.4331 176.9101 140.75 176.8759 140.75 182 C 140.75 187.124 134.5001 182.6667 130.5 182.6667 C 126.4999 182.6667 119.1667 183.5 119 182.0027 Z" fill="#ff6633"/>
		<path d="M 116 177 C 141 169 149 180 149 180 " stroke="#000000" stroke-width="2" fill="none"/>
	</g>
</svg>