<?xml version="1.0" standalone="no"?>
<!-- Generator: Adobe Fireworks 10, Export SVG Extension by Aaron Beall (http://fireworks.abeall.com) . Version: 0.6.0  -->
<!DOCTYPE svg PUBLIC "-//W3C//DTD SVG 1.1//EN" "http://www.w3.org/Graphics/SVG/1.1/DTD/svg11.dtd">
<svg id="" viewBox="0 0 197 210" style="background-color:#ffffff00" version="1.1"
	xmlns="http://www.w3.org/2000/svg" xmlns:xlink="http://www.w3.org/1999/xlink" xml:space="preserve"
	x="0px" y="0px" width="197px" height="210px"
>
	<path id="Ellipse" opacity="0.4" d="M 0 196.0054 C 0 185.7572 25.5823 182 88.9175 182 C 152.2518 182 190 185.7572 190 196.0054 C 190 206.2534 152.2518 210 88.9175 210 C 25.5823 210 0 206.2534 0 196.0054 Z" fill="#000000"/>
	<path id="Ellipse2" d="M 49.4702 111.6263 C 49.4702 15.1092 24.4578 1 108.7355 1 C 193.0132 1 196 15.1092 196 111.6263 C 196 208.1434 193.0132 200.8754 108.7355 200.8754 C 24.4578 200.8754 49.4702 208.1434 49.4702 111.6263 Z" stroke="#000000" stroke-width="2" fill="#ff6633"/>
	<path id="Ellipse3" d="M 69.9381 106.9887 C 69.9381 16.2626 48.7609 3 120.116 3 C 191.4711 3 194 16.2626 194 106.9887 C 194 197.7148 191.4711 190.8829 120.116 190.8829 C 48.7609 190.8829 69.9381 197.7148 69.9381 106.9887 Z" fill="#ffcc00"/>
	<path id="Ellipse4" d="M 101 126.0027 C 101 120.8786 102.6157 119 106.6158 119 C 110.6159 119 113 120.8786 113 126.0027 C 113 131.1267 110.6159 133 106.6158 133 C 102.6157 133 101 131.1267 101 126.0027 Z" fill="#000000"/>
	<path id="Ellipse5" d="M 101 122.25 C 100.6793 117.9201 114.624 119.3653 112.7018 131.4076 C 111.6609 137.9283 104.7988 137.8674 100.25 135.75 C 97.1277 134.2966 101.5 129 101 122.25 Z" fill="#ff6633"/>
	<path id="Ellipse6" d="M 178.0003 123.25 C 178.321 118.9201 164.3763 120.3653 166.2985 132.4076 C 167.3394 138.9283 174.2015 138.8674 178.7503 136.75 C 181.8726 135.2966 177.5003 130 178.0003 123.25 Z" fill="#ff6633"/>
	<path id="Ellipse7" d="M 101 126.0027 C 101 120.8786 102.6157 119 106.6158 119 C 110.6159 119 113 120.8786 113 126.0027 C 113 131.1267 110.6159 133 106.6158 133 C 102.6157 133 101 131.1267 101 126.0027 Z" fill="#000000"/>
	<path id="Ellipse8" d="M 115 153.0027 C 114.4331 147.9101 136.75 147.8759 136.75 153 C 136.75 158.124 130.5001 153.6667 126.5 153.6667 C 122.4999 153.6667 115.1667 154.5 115 153.0027 Z" fill="#ff6633"/>
	<path id="Ellipse9" d="M 166 126.0027 C 166 120.8786 167.6157 119 171.6158 119 C 175.6159 119 178 120.8786 178 126.0027 C 178 131.1267 175.6159 133 171.6158 133 C 167.6157 133 166 131.1267 166 126.0027 Z" fill="#000000"/>
	<path d="M 112 148 C 137 140 145 151 145 151 " stroke="#000000" stroke-width="2" fill="none"/>
</svg>